<svg width="92" height="40" viewBox="0 0 92 40" fill="none" xmlns="http://www.w3.org/2000/svg">
<g filter="url(#filter0_d_2217_390)">
<path d="M4.864 22.52L10.504 12.992H5.08V9.488H15.88V12.992L10.36 22.496H16.12V26H4.864V22.52ZM22.4084 26.192C21.0644 26.192 20.0164 25.76 19.2644 24.896C18.5124 24.032 18.1364 22.856 18.1364 21.368V13.976H23.2244V21.152C23.2244 21.52 23.3204 21.808 23.5124 22.016C23.7204 22.208 23.9844 22.304 24.3044 22.304C24.6244 22.304 24.9524 22.208 25.2884 22.016L25.5524 25.352C25.2004 25.624 24.7364 25.832 24.1604 25.976C23.6004 26.12 23.0164 26.192 22.4084 26.192ZM20.6804 12.176C19.9284 12.176 19.2884 11.944 18.7604 11.48C18.2484 11 17.9924 10.416 17.9924 9.728C17.9924 9.04 18.2644 8.464 18.8084 8C19.3524 7.536 19.9764 7.304 20.6804 7.304C21.4164 7.304 22.0484 7.544 22.5764 8.024C23.1204 8.504 23.3924 9.072 23.3924 9.728C23.3924 10.432 23.1204 11.016 22.5764 11.48C22.0324 11.944 21.4004 12.176 20.6804 12.176ZM26.95 14.144H31.774V16.592C32.702 14.736 34.174 13.808 36.19 13.808C37.726 13.808 38.926 14.36 39.79 15.464C40.67 16.552 41.11 18.064 41.11 20V26H36.07V19.496C36.07 18.808 35.918 18.28 35.614 17.912C35.326 17.544 34.918 17.36 34.39 17.36C34.006 17.36 33.63 17.488 33.262 17.744C32.894 17.984 32.59 18.336 32.35 18.8C32.126 19.264 32.014 19.792 32.014 20.384V26H26.95V14.144ZM50.2186 31.496C49.3386 31.496 48.4986 31.408 47.6986 31.232L48.0826 27.68C48.7066 27.776 49.2826 27.824 49.8106 27.824C50.8026 27.824 51.5546 27.528 52.0666 26.936C52.5786 26.36 52.8826 25.384 52.9786 24.008C52.0346 25.336 50.5946 26 48.6586 26C47.6026 26 46.6266 25.728 45.7306 25.184C44.8506 24.64 44.1466 23.904 43.6186 22.976C43.1066 22.048 42.8506 21.032 42.8506 19.928C42.8506 18.808 43.1066 17.784 43.6186 16.856C44.1306 15.912 44.8266 15.168 45.7066 14.624C46.6026 14.08 47.5786 13.808 48.6346 13.808C49.6106 13.808 50.4586 14.064 51.1786 14.576C51.9146 15.072 52.3946 15.744 52.6186 16.592V13.808H57.6826V22.952C57.6826 25.752 57.0426 27.872 55.7626 29.312C54.4986 30.768 52.6506 31.496 50.2186 31.496ZM50.2186 22.4C50.8586 22.4 51.4106 22.176 51.8746 21.728C52.3386 21.264 52.5866 20.72 52.6186 20.096V19.904C52.5866 19.296 52.3306 18.76 51.8506 18.296C51.3866 17.832 50.8426 17.6 50.2186 17.6C49.5626 17.6 49.0026 17.84 48.5386 18.32C48.0746 18.784 47.8426 19.344 47.8426 20C47.8426 20.656 48.0746 21.224 48.5386 21.704C49.0026 22.168 49.5626 22.4 50.2186 22.4ZM66.3301 26.192C65.0021 26.192 63.8181 25.928 62.7781 25.4C61.7541 24.856 60.9541 24.12 60.3781 23.192C59.8021 22.248 59.5141 21.184 59.5141 20C59.5141 18.784 59.8101 17.704 60.4021 16.76C60.9941 15.816 61.7941 15.088 62.8021 14.576C63.8101 14.064 64.9301 13.808 66.1621 13.808C67.3461 13.808 68.3541 14.072 69.1861 14.6C70.0341 15.112 70.6661 15.816 71.0821 16.712C71.4981 17.592 71.7061 18.584 71.7061 19.688C71.7061 19.976 71.6901 20.184 71.6581 20.312L64.4581 21.248C64.6501 21.808 64.9621 22.216 65.3941 22.472C65.8261 22.712 66.3941 22.832 67.0981 22.832C68.1861 22.832 69.3621 22.552 70.6261 21.992L71.2261 25.208C69.7381 25.864 68.1061 26.192 66.3301 26.192ZM67.9861 18.224C67.7301 17.216 67.1221 16.712 66.1621 16.712C65.5861 16.712 65.1301 16.928 64.7941 17.36C64.4581 17.792 64.2821 18.352 64.2661 19.04L67.9861 18.224ZM73.45 14.144H78.274V16.592C79.202 14.736 80.674 13.808 82.69 13.808C84.226 13.808 85.426 14.36 86.29 15.464C87.17 16.552 87.61 18.064 87.61 20V26H82.57V19.496C82.57 18.808 82.418 18.28 82.114 17.912C81.826 17.544 81.418 17.36 80.89 17.36C80.506 17.36 80.13 17.488 79.762 17.744C79.394 17.984 79.09 18.336 78.85 18.8C78.626 19.264 78.514 19.792 78.514 20.384V26H73.45V14.144Z" fill="#F4F4F5"/>
</g>
<defs>
<filter id="filter0_d_2217_390" x="0" y="0" width="93" height="40" filterUnits="userSpaceOnUse" color-interpolation-filters="sRGB">
<feFlood flood-opacity="0" result="BackgroundImageFix"/>
<feColorMatrix in="SourceAlpha" type="matrix" values="0 0 0 0 0 0 0 0 0 0 0 0 0 0 0 0 0 0 127 0" result="hardAlpha"/>
<feOffset dy="4"/>
<feGaussianBlur stdDeviation="2"/>
<feComposite in2="hardAlpha" operator="out"/>
<feColorMatrix type="matrix" values="0 0 0 0 0 0 0 0 0 0 0 0 0 0 0 0 0 0 0.25 0"/>
<feBlend mode="normal" in2="BackgroundImageFix" result="effect1_dropShadow_2217_390"/>
<feBlend mode="normal" in="SourceGraphic" in2="effect1_dropShadow_2217_390" result="shape"/>
</filter>
</defs>
</svg>
